<mxfile host="app.diagrams.net" modified="2023-08-08T09:23:49.328Z" agent="Mozilla/5.0 (Windows NT 10.0; Win64; x64; rv:109.0) Gecko/20100101 Firefox/110.0" etag="evY21YkdX5EZ6XMFtxl7" version="21.3.6" type="github">
  <diagram name="Page-1" id="sbGRG7M9xuiqy8XJDKN2">
    <mxGraphModel dx="1434" dy="774" grid="1" gridSize="10" guides="1" tooltips="1" connect="1" arrows="1" fold="1" page="1" pageScale="1" pageWidth="850" pageHeight="1100" math="0" shadow="0">
      <root>
        <mxCell id="0" />
        <mxCell id="1" parent="0" />
        <mxCell id="xdNbt9fjilotY_-k2by0-6" value="" style="edgeStyle=orthogonalEdgeStyle;rounded=0;orthogonalLoop=1;jettySize=auto;html=1;" edge="1" parent="1" source="xdNbt9fjilotY_-k2by0-1" target="xdNbt9fjilotY_-k2by0-5">
          <mxGeometry relative="1" as="geometry" />
        </mxCell>
        <mxCell id="xdNbt9fjilotY_-k2by0-1" value="Start" style="rounded=1;whiteSpace=wrap;html=1;" vertex="1" parent="1">
          <mxGeometry x="290" y="10" width="120" height="40" as="geometry" />
        </mxCell>
        <mxCell id="xdNbt9fjilotY_-k2by0-7" style="edgeStyle=orthogonalEdgeStyle;rounded=0;orthogonalLoop=1;jettySize=auto;html=1;" edge="1" parent="1" source="xdNbt9fjilotY_-k2by0-5">
          <mxGeometry relative="1" as="geometry">
            <mxPoint x="530" y="150" as="targetPoint" />
          </mxGeometry>
        </mxCell>
        <mxCell id="xdNbt9fjilotY_-k2by0-13" style="edgeStyle=orthogonalEdgeStyle;rounded=0;orthogonalLoop=1;jettySize=auto;html=1;" edge="1" parent="1" source="xdNbt9fjilotY_-k2by0-5">
          <mxGeometry relative="1" as="geometry">
            <mxPoint x="210" y="150" as="targetPoint" />
          </mxGeometry>
        </mxCell>
        <mxCell id="xdNbt9fjilotY_-k2by0-23" style="edgeStyle=orthogonalEdgeStyle;rounded=0;orthogonalLoop=1;jettySize=auto;html=1;" edge="1" parent="1" source="xdNbt9fjilotY_-k2by0-5" target="xdNbt9fjilotY_-k2by0-24">
          <mxGeometry relative="1" as="geometry">
            <mxPoint x="350" y="280" as="targetPoint" />
          </mxGeometry>
        </mxCell>
        <mxCell id="xdNbt9fjilotY_-k2by0-5" value="Login" style="rhombus;whiteSpace=wrap;html=1;rounded=1;" vertex="1" parent="1">
          <mxGeometry x="310" y="110" width="80" height="80" as="geometry" />
        </mxCell>
        <mxCell id="xdNbt9fjilotY_-k2by0-8" value="Don&#39;t have an account?" style="text;html=1;align=center;verticalAlign=middle;resizable=0;points=[];autosize=1;strokeColor=none;fillColor=none;" vertex="1" parent="1">
          <mxGeometry x="380" y="118" width="150" height="30" as="geometry" />
        </mxCell>
        <mxCell id="xdNbt9fjilotY_-k2by0-12" value="" style="edgeStyle=orthogonalEdgeStyle;rounded=0;orthogonalLoop=1;jettySize=auto;html=1;" edge="1" parent="1" source="xdNbt9fjilotY_-k2by0-10" target="xdNbt9fjilotY_-k2by0-11">
          <mxGeometry relative="1" as="geometry" />
        </mxCell>
        <mxCell id="xdNbt9fjilotY_-k2by0-10" value="Sign Up" style="rounded=0;whiteSpace=wrap;html=1;" vertex="1" parent="1">
          <mxGeometry x="530" y="130" width="120" height="40" as="geometry" />
        </mxCell>
        <mxCell id="xdNbt9fjilotY_-k2by0-21" value="" style="edgeStyle=orthogonalEdgeStyle;rounded=0;orthogonalLoop=1;jettySize=auto;html=1;" edge="1" parent="1" source="xdNbt9fjilotY_-k2by0-11" target="xdNbt9fjilotY_-k2by0-20">
          <mxGeometry relative="1" as="geometry" />
        </mxCell>
        <mxCell id="xdNbt9fjilotY_-k2by0-11" value="Email Otp Verification" style="whiteSpace=wrap;html=1;rounded=0;" vertex="1" parent="1">
          <mxGeometry x="530" y="210" width="120" height="40" as="geometry" />
        </mxCell>
        <mxCell id="xdNbt9fjilotY_-k2by0-14" value="Forgot Password?" style="text;html=1;align=center;verticalAlign=middle;resizable=0;points=[];autosize=1;strokeColor=none;fillColor=none;" vertex="1" parent="1">
          <mxGeometry x="210" y="118" width="120" height="30" as="geometry" />
        </mxCell>
        <mxCell id="xdNbt9fjilotY_-k2by0-17" value="" style="edgeStyle=orthogonalEdgeStyle;rounded=0;orthogonalLoop=1;jettySize=auto;html=1;" edge="1" parent="1" source="xdNbt9fjilotY_-k2by0-15" target="xdNbt9fjilotY_-k2by0-16">
          <mxGeometry relative="1" as="geometry" />
        </mxCell>
        <mxCell id="xdNbt9fjilotY_-k2by0-15" value="Email Otp Verification" style="rounded=0;whiteSpace=wrap;html=1;" vertex="1" parent="1">
          <mxGeometry x="90" y="130" width="120" height="40" as="geometry" />
        </mxCell>
        <mxCell id="xdNbt9fjilotY_-k2by0-22" style="edgeStyle=orthogonalEdgeStyle;rounded=0;orthogonalLoop=1;jettySize=auto;html=1;entryX=0;entryY=0;entryDx=0;entryDy=0;" edge="1" parent="1" source="xdNbt9fjilotY_-k2by0-16" target="xdNbt9fjilotY_-k2by0-5">
          <mxGeometry relative="1" as="geometry" />
        </mxCell>
        <mxCell id="xdNbt9fjilotY_-k2by0-16" value="Reset Password" style="whiteSpace=wrap;html=1;rounded=0;" vertex="1" parent="1">
          <mxGeometry x="90" y="50" width="120" height="40" as="geometry" />
        </mxCell>
        <mxCell id="xdNbt9fjilotY_-k2by0-19" value="Successfull Otp Verification" style="text;html=1;align=center;verticalAlign=middle;resizable=0;points=[];autosize=1;strokeColor=none;fillColor=none;" vertex="1" parent="1">
          <mxGeometry x="50" y="170" width="170" height="30" as="geometry" />
        </mxCell>
        <mxCell id="xdNbt9fjilotY_-k2by0-26" style="edgeStyle=orthogonalEdgeStyle;rounded=0;orthogonalLoop=1;jettySize=auto;html=1;exitX=0;exitY=0.5;exitDx=0;exitDy=0;entryX=1;entryY=0.5;entryDx=0;entryDy=0;" edge="1" parent="1" source="xdNbt9fjilotY_-k2by0-20" target="xdNbt9fjilotY_-k2by0-24">
          <mxGeometry relative="1" as="geometry" />
        </mxCell>
        <mxCell id="xdNbt9fjilotY_-k2by0-20" value="Profile Form Filling Page" style="whiteSpace=wrap;html=1;rounded=0;" vertex="1" parent="1">
          <mxGeometry x="530" y="290" width="120" height="40" as="geometry" />
        </mxCell>
        <mxCell id="xdNbt9fjilotY_-k2by0-28" style="edgeStyle=orthogonalEdgeStyle;rounded=0;orthogonalLoop=1;jettySize=auto;html=1;" edge="1" parent="1" source="xdNbt9fjilotY_-k2by0-24">
          <mxGeometry relative="1" as="geometry">
            <mxPoint x="350" y="370" as="targetPoint" />
          </mxGeometry>
        </mxCell>
        <mxCell id="xdNbt9fjilotY_-k2by0-30" style="edgeStyle=orthogonalEdgeStyle;rounded=0;orthogonalLoop=1;jettySize=auto;html=1;" edge="1" parent="1" source="xdNbt9fjilotY_-k2by0-24">
          <mxGeometry relative="1" as="geometry">
            <mxPoint x="70" y="370" as="targetPoint" />
          </mxGeometry>
        </mxCell>
        <mxCell id="xdNbt9fjilotY_-k2by0-32" style="edgeStyle=orthogonalEdgeStyle;rounded=0;orthogonalLoop=1;jettySize=auto;html=1;exitX=0;exitY=0.75;exitDx=0;exitDy=0;" edge="1" parent="1" source="xdNbt9fjilotY_-k2by0-24">
          <mxGeometry relative="1" as="geometry">
            <mxPoint x="120" y="420" as="targetPoint" />
          </mxGeometry>
        </mxCell>
        <mxCell id="xdNbt9fjilotY_-k2by0-34" style="edgeStyle=orthogonalEdgeStyle;rounded=0;orthogonalLoop=1;jettySize=auto;html=1;exitX=0;exitY=1;exitDx=0;exitDy=0;" edge="1" parent="1" source="xdNbt9fjilotY_-k2by0-24">
          <mxGeometry relative="1" as="geometry">
            <mxPoint x="180" y="480" as="targetPoint" />
            <Array as="points">
              <mxPoint x="181" y="330" />
            </Array>
          </mxGeometry>
        </mxCell>
        <mxCell id="xdNbt9fjilotY_-k2by0-46" style="edgeStyle=orthogonalEdgeStyle;rounded=0;orthogonalLoop=1;jettySize=auto;html=1;exitX=1;exitY=1;exitDx=0;exitDy=0;entryX=0.5;entryY=0;entryDx=0;entryDy=0;" edge="1" parent="1" source="xdNbt9fjilotY_-k2by0-24" target="xdNbt9fjilotY_-k2by0-37">
          <mxGeometry relative="1" as="geometry">
            <Array as="points">
              <mxPoint x="448" y="330" />
            </Array>
          </mxGeometry>
        </mxCell>
        <mxCell id="xdNbt9fjilotY_-k2by0-48" style="edgeStyle=orthogonalEdgeStyle;rounded=0;orthogonalLoop=1;jettySize=auto;html=1;exitX=1;exitY=0.75;exitDx=0;exitDy=0;entryX=0.25;entryY=0;entryDx=0;entryDy=0;" edge="1" parent="1" source="xdNbt9fjilotY_-k2by0-24" target="xdNbt9fjilotY_-k2by0-43">
          <mxGeometry relative="1" as="geometry" />
        </mxCell>
        <mxCell id="xdNbt9fjilotY_-k2by0-24" value="HomePage" style="rounded=0;whiteSpace=wrap;html=1;" vertex="1" parent="1">
          <mxGeometry x="290" y="290" width="120" height="40" as="geometry" />
        </mxCell>
        <mxCell id="xdNbt9fjilotY_-k2by0-40" style="edgeStyle=orthogonalEdgeStyle;rounded=0;orthogonalLoop=1;jettySize=auto;html=1;" edge="1" parent="1" source="xdNbt9fjilotY_-k2by0-29">
          <mxGeometry relative="1" as="geometry">
            <mxPoint x="350" y="480" as="targetPoint" />
          </mxGeometry>
        </mxCell>
        <mxCell id="xdNbt9fjilotY_-k2by0-29" value="Searching People" style="rounded=0;whiteSpace=wrap;html=1;" vertex="1" parent="1">
          <mxGeometry x="290" y="370" width="120" height="30" as="geometry" />
        </mxCell>
        <mxCell id="xdNbt9fjilotY_-k2by0-31" value="Message" style="rounded=0;whiteSpace=wrap;html=1;" vertex="1" parent="1">
          <mxGeometry x="30" y="370" width="80" height="30" as="geometry" />
        </mxCell>
        <mxCell id="xdNbt9fjilotY_-k2by0-79" style="edgeStyle=orthogonalEdgeStyle;rounded=0;orthogonalLoop=1;jettySize=auto;html=1;" edge="1" parent="1" source="xdNbt9fjilotY_-k2by0-33">
          <mxGeometry relative="1" as="geometry">
            <mxPoint x="120" y="650" as="targetPoint" />
          </mxGeometry>
        </mxCell>
        <mxCell id="xdNbt9fjilotY_-k2by0-89" style="edgeStyle=orthogonalEdgeStyle;rounded=0;orthogonalLoop=1;jettySize=auto;html=1;exitX=0.25;exitY=1;exitDx=0;exitDy=0;" edge="1" parent="1" source="xdNbt9fjilotY_-k2by0-33">
          <mxGeometry relative="1" as="geometry">
            <mxPoint x="40" y="570" as="targetPoint" />
          </mxGeometry>
        </mxCell>
        <mxCell id="xdNbt9fjilotY_-k2by0-33" value="Notification" style="rounded=0;whiteSpace=wrap;html=1;" vertex="1" parent="1">
          <mxGeometry x="80" y="420" width="80" height="30" as="geometry" />
        </mxCell>
        <mxCell id="xdNbt9fjilotY_-k2by0-35" value="Create Post" style="rounded=0;whiteSpace=wrap;html=1;" vertex="1" parent="1">
          <mxGeometry x="140" y="480" width="80" height="30" as="geometry" />
        </mxCell>
        <mxCell id="xdNbt9fjilotY_-k2by0-75" style="edgeStyle=orthogonalEdgeStyle;rounded=0;orthogonalLoop=1;jettySize=auto;html=1;exitX=1;exitY=0.75;exitDx=0;exitDy=0;" edge="1" parent="1" source="xdNbt9fjilotY_-k2by0-37">
          <mxGeometry relative="1" as="geometry">
            <mxPoint x="710" y="450" as="targetPoint" />
            <mxPoint x="490" y="430" as="sourcePoint" />
            <Array as="points">
              <mxPoint x="711" y="433" />
            </Array>
          </mxGeometry>
        </mxCell>
        <mxCell id="xdNbt9fjilotY_-k2by0-77" style="edgeStyle=orthogonalEdgeStyle;rounded=0;orthogonalLoop=1;jettySize=auto;html=1;exitX=1;exitY=0.25;exitDx=0;exitDy=0;" edge="1" parent="1" source="xdNbt9fjilotY_-k2by0-37">
          <mxGeometry relative="1" as="geometry">
            <mxPoint x="790" y="510" as="targetPoint" />
          </mxGeometry>
        </mxCell>
        <mxCell id="xdNbt9fjilotY_-k2by0-91" style="edgeStyle=orthogonalEdgeStyle;rounded=0;orthogonalLoop=1;jettySize=auto;html=1;exitX=1;exitY=0;exitDx=0;exitDy=0;" edge="1" parent="1" source="xdNbt9fjilotY_-k2by0-37">
          <mxGeometry relative="1" as="geometry">
            <mxPoint x="820" y="570" as="targetPoint" />
            <Array as="points">
              <mxPoint x="821" y="410" />
            </Array>
          </mxGeometry>
        </mxCell>
        <mxCell id="xdNbt9fjilotY_-k2by0-37" value="UserProfile" style="rounded=0;whiteSpace=wrap;html=1;" vertex="1" parent="1">
          <mxGeometry x="410" y="410" width="75" height="30" as="geometry" />
        </mxCell>
        <mxCell id="xdNbt9fjilotY_-k2by0-51" value="" style="edgeStyle=orthogonalEdgeStyle;rounded=0;orthogonalLoop=1;jettySize=auto;html=1;" edge="1" parent="1" source="xdNbt9fjilotY_-k2by0-41">
          <mxGeometry relative="1" as="geometry">
            <mxPoint x="350" y="530" as="targetPoint" />
          </mxGeometry>
        </mxCell>
        <mxCell id="xdNbt9fjilotY_-k2by0-41" value="Click for details" style="rounded=0;whiteSpace=wrap;html=1;" vertex="1" parent="1">
          <mxGeometry x="290" y="480" width="120" height="30" as="geometry" />
        </mxCell>
        <mxCell id="xdNbt9fjilotY_-k2by0-49" style="edgeStyle=orthogonalEdgeStyle;rounded=0;orthogonalLoop=1;jettySize=auto;html=1;entryX=1;entryY=0;entryDx=0;entryDy=0;" edge="1" parent="1" source="xdNbt9fjilotY_-k2by0-43" target="xdNbt9fjilotY_-k2by0-5">
          <mxGeometry relative="1" as="geometry">
            <Array as="points">
              <mxPoint x="700" y="390" />
              <mxPoint x="700" y="80" />
              <mxPoint x="370" y="80" />
            </Array>
          </mxGeometry>
        </mxCell>
        <mxCell id="xdNbt9fjilotY_-k2by0-43" value="LogOut" style="rounded=0;whiteSpace=wrap;html=1;" vertex="1" parent="1">
          <mxGeometry x="490" y="380" width="70" height="20" as="geometry" />
        </mxCell>
        <mxCell id="xdNbt9fjilotY_-k2by0-56" style="edgeStyle=orthogonalEdgeStyle;rounded=0;orthogonalLoop=1;jettySize=auto;html=1;entryX=0;entryY=0.5;entryDx=0;entryDy=0;" edge="1" parent="1" source="xdNbt9fjilotY_-k2by0-54" target="xdNbt9fjilotY_-k2by0-58">
          <mxGeometry relative="1" as="geometry">
            <mxPoint x="490" y="565" as="targetPoint" />
          </mxGeometry>
        </mxCell>
        <mxCell id="xdNbt9fjilotY_-k2by0-62" style="edgeStyle=orthogonalEdgeStyle;rounded=0;orthogonalLoop=1;jettySize=auto;html=1;" edge="1" parent="1" source="xdNbt9fjilotY_-k2by0-54">
          <mxGeometry relative="1" as="geometry">
            <mxPoint x="240" y="565" as="targetPoint" />
          </mxGeometry>
        </mxCell>
        <mxCell id="xdNbt9fjilotY_-k2by0-54" value="&lt;div&gt;View&lt;/div&gt;&lt;div&gt;Account&lt;br&gt;&lt;/div&gt;" style="rhombus;whiteSpace=wrap;html=1;" vertex="1" parent="1">
          <mxGeometry x="310" y="530" width="80" height="70" as="geometry" />
        </mxCell>
        <mxCell id="xdNbt9fjilotY_-k2by0-57" value="Account is Private" style="text;html=1;align=center;verticalAlign=middle;resizable=0;points=[];autosize=1;strokeColor=none;fillColor=none;" vertex="1" parent="1">
          <mxGeometry x="370" y="530" width="120" height="30" as="geometry" />
        </mxCell>
        <mxCell id="xdNbt9fjilotY_-k2by0-69" style="edgeStyle=orthogonalEdgeStyle;rounded=0;orthogonalLoop=1;jettySize=auto;html=1;" edge="1" parent="1" source="xdNbt9fjilotY_-k2by0-58" target="xdNbt9fjilotY_-k2by0-60">
          <mxGeometry relative="1" as="geometry" />
        </mxCell>
        <mxCell id="xdNbt9fjilotY_-k2by0-70" style="edgeStyle=orthogonalEdgeStyle;rounded=0;orthogonalLoop=1;jettySize=auto;html=1;exitX=1;exitY=0.5;exitDx=0;exitDy=0;entryX=0.5;entryY=0;entryDx=0;entryDy=0;" edge="1" parent="1" source="xdNbt9fjilotY_-k2by0-58" target="xdNbt9fjilotY_-k2by0-58">
          <mxGeometry relative="1" as="geometry">
            <mxPoint x="670" y="565" as="targetPoint" />
            <Array as="points">
              <mxPoint x="620" y="565" />
              <mxPoint x="620" y="510" />
              <mxPoint x="550" y="510" />
            </Array>
          </mxGeometry>
        </mxCell>
        <mxCell id="xdNbt9fjilotY_-k2by0-58" value="Send Request" style="rounded=0;whiteSpace=wrap;html=1;" vertex="1" parent="1">
          <mxGeometry x="500" y="550" width="100" height="30" as="geometry" />
        </mxCell>
        <mxCell id="xdNbt9fjilotY_-k2by0-66" value="" style="edgeStyle=orthogonalEdgeStyle;rounded=0;orthogonalLoop=1;jettySize=auto;html=1;" edge="1" parent="1" source="xdNbt9fjilotY_-k2by0-60" target="xdNbt9fjilotY_-k2by0-65">
          <mxGeometry relative="1" as="geometry" />
        </mxCell>
        <mxCell id="xdNbt9fjilotY_-k2by0-60" value="post view" style="rounded=0;whiteSpace=wrap;html=1;" vertex="1" parent="1">
          <mxGeometry x="490" y="620" width="120" height="30" as="geometry" />
        </mxCell>
        <mxCell id="xdNbt9fjilotY_-k2by0-61" value="Accepts Request" style="text;html=1;align=center;verticalAlign=middle;resizable=0;points=[];autosize=1;strokeColor=none;fillColor=none;" vertex="1" parent="1">
          <mxGeometry x="540" y="590" width="120" height="30" as="geometry" />
        </mxCell>
        <mxCell id="xdNbt9fjilotY_-k2by0-67" style="edgeStyle=orthogonalEdgeStyle;rounded=0;orthogonalLoop=1;jettySize=auto;html=1;entryX=0;entryY=0.5;entryDx=0;entryDy=0;" edge="1" parent="1" source="xdNbt9fjilotY_-k2by0-63" target="xdNbt9fjilotY_-k2by0-60">
          <mxGeometry relative="1" as="geometry">
            <Array as="points">
              <mxPoint x="190" y="635" />
            </Array>
          </mxGeometry>
        </mxCell>
        <mxCell id="xdNbt9fjilotY_-k2by0-63" value="Follow" style="rounded=0;whiteSpace=wrap;html=1;" vertex="1" parent="1">
          <mxGeometry x="140" y="550" width="100" height="30" as="geometry" />
        </mxCell>
        <mxCell id="xdNbt9fjilotY_-k2by0-64" value="Account is Public" style="text;html=1;align=center;verticalAlign=middle;resizable=0;points=[];autosize=1;strokeColor=none;fillColor=none;" vertex="1" parent="1">
          <mxGeometry x="220" y="530" width="120" height="30" as="geometry" />
        </mxCell>
        <mxCell id="xdNbt9fjilotY_-k2by0-65" value="Like/Comment" style="rounded=0;whiteSpace=wrap;html=1;" vertex="1" parent="1">
          <mxGeometry x="490" y="680" width="120" height="30" as="geometry" />
        </mxCell>
        <mxCell id="xdNbt9fjilotY_-k2by0-71" value="&lt;div&gt;Decline&lt;/div&gt;&lt;div&gt;Request&lt;br&gt;&lt;/div&gt;" style="text;html=1;align=center;verticalAlign=middle;resizable=0;points=[];autosize=1;strokeColor=none;fillColor=none;" vertex="1" parent="1">
          <mxGeometry x="560" y="510" width="70" height="40" as="geometry" />
        </mxCell>
        <mxCell id="xdNbt9fjilotY_-k2by0-76" value="Edit Profile" style="rounded=0;whiteSpace=wrap;html=1;" vertex="1" parent="1">
          <mxGeometry x="660" y="450" width="120" height="30" as="geometry" />
        </mxCell>
        <mxCell id="xdNbt9fjilotY_-k2by0-78" value="ViewPost/Delete Post" style="rounded=0;whiteSpace=wrap;html=1;" vertex="1" parent="1">
          <mxGeometry x="690" y="510" width="120" height="30" as="geometry" />
        </mxCell>
        <mxCell id="xdNbt9fjilotY_-k2by0-82" style="edgeStyle=orthogonalEdgeStyle;rounded=0;orthogonalLoop=1;jettySize=auto;html=1;" edge="1" parent="1" source="xdNbt9fjilotY_-k2by0-81">
          <mxGeometry relative="1" as="geometry">
            <mxPoint x="210" y="740" as="targetPoint" />
          </mxGeometry>
        </mxCell>
        <mxCell id="xdNbt9fjilotY_-k2by0-85" style="edgeStyle=orthogonalEdgeStyle;rounded=0;orthogonalLoop=1;jettySize=auto;html=1;" edge="1" parent="1" source="xdNbt9fjilotY_-k2by0-81">
          <mxGeometry relative="1" as="geometry">
            <mxPoint x="120" y="780" as="targetPoint" />
          </mxGeometry>
        </mxCell>
        <mxCell id="xdNbt9fjilotY_-k2by0-81" value="Friend Requests" style="rhombus;whiteSpace=wrap;html=1;" vertex="1" parent="1">
          <mxGeometry x="80" y="650" width="80" height="70" as="geometry" />
        </mxCell>
        <mxCell id="xdNbt9fjilotY_-k2by0-83" value="Followers Increased" style="rounded=0;whiteSpace=wrap;html=1;" vertex="1" parent="1">
          <mxGeometry x="190" y="740" width="120" height="30" as="geometry" />
        </mxCell>
        <mxCell id="xdNbt9fjilotY_-k2by0-84" value="Accept Request" style="text;html=1;align=center;verticalAlign=middle;resizable=0;points=[];autosize=1;strokeColor=none;fillColor=none;" vertex="1" parent="1">
          <mxGeometry x="140" y="658" width="110" height="30" as="geometry" />
        </mxCell>
        <mxCell id="xdNbt9fjilotY_-k2by0-86" value="Decline" style="rounded=0;whiteSpace=wrap;html=1;" vertex="1" parent="1">
          <mxGeometry x="70" y="780" width="120" height="30" as="geometry" />
        </mxCell>
        <mxCell id="xdNbt9fjilotY_-k2by0-88" value="&lt;div&gt;Reject &lt;br&gt;&lt;/div&gt;&lt;div&gt;Request&lt;br&gt;&lt;/div&gt;" style="text;html=1;align=center;verticalAlign=middle;resizable=0;points=[];autosize=1;strokeColor=none;fillColor=none;" vertex="1" parent="1">
          <mxGeometry x="110" y="710" width="70" height="40" as="geometry" />
        </mxCell>
        <mxCell id="xdNbt9fjilotY_-k2by0-90" value="&lt;div&gt;Like/Comments&lt;/div&gt;&lt;div&gt;Notification&lt;br&gt;&lt;/div&gt;" style="rounded=0;whiteSpace=wrap;html=1;" vertex="1" parent="1">
          <mxGeometry y="570" width="100" height="30" as="geometry" />
        </mxCell>
        <mxCell id="xdNbt9fjilotY_-k2by0-92" value="&lt;div&gt;View Followers and &lt;br&gt;&lt;/div&gt;&lt;div&gt;Following&lt;br&gt;&lt;/div&gt;" style="rounded=0;whiteSpace=wrap;html=1;" vertex="1" parent="1">
          <mxGeometry x="710" y="570" width="120" height="30" as="geometry" />
        </mxCell>
      </root>
    </mxGraphModel>
  </diagram>
</mxfile>
